<svg height="55" viewBox="0 0 69 55" width="69" xmlns="http://www.w3.org/2000/svg"><path d="m48.9228355 537.5 24.4793761-24.479376c1.7108613-1.710861 4.4673222-1.728255 6.1567278-.038849 1.5687338 1.568734 1.6657889 4.057531.3018389 5.77488l-.3406878.381848-13.9358764 13.93978 44.8955569-.000704c2.442436 0 4.422421 1.979985 4.422421 4.422421 0 2.254556-1.687088 4.115071-3.867682 4.387964l-.554739.034457-44.7484787.000353 13.905345 13.899874c1.5687338 1.568734 1.665789 4.057531.3018389 5.774881l-.3406878.381847c-1.5886569 1.588657-4.0788768 1.71713-5.7791498.374745l-.377578-.335896z" fill="none" stroke="#000" stroke-width="2" transform="translate(-47 -510)"/></svg>