<svg height="85" viewBox="0 0 85 85" width="85" xmlns="http://www.w3.org/2000/svg"><path d="m63.770861 0c6.6863905 0 9.1110373.69619208 11.5554818 2.00349528 2.4444444 1.30730319 4.3628587 3.2257175 5.6701619 5.67016194 1.3073032 2.44444448 2.0034953 4.86909128 2.0034953 11.55548178v44.541722c0 6.6863905-.6961921 9.1110373-2.0034953 11.5554818-1.3073032 2.4444444-3.2257175 4.3628587-5.6701619 5.6701619-2.4444445 1.3073032-4.8690913 2.0034953-11.5554818 2.0034953h-44.541722c-6.6863905 0-9.1110373-.6961921-11.55548178-2.0034953-2.44444444-1.3073032-4.36285875-3.2257175-5.67016194-5.6701619-1.3073032-2.4444445-2.00349528-4.8690913-2.00349528-11.5554818v-44.541722c0-6.6863905.69619208-9.1110373 2.00349528-11.55548178 1.30730319-2.44444444 3.2257175-4.36285875 5.67016194-5.67016194 2.44444448-1.3073032 4.86909128-2.00349528 11.55548178-2.00349528zm1.229139 18h-37.2347304l-.5417605.0312535c-2.3103741.2683463-4.1037139 2.2318551-4.1037139 4.6142208l.0312535.5417605c.2683464 2.3103741 2.2318551 4.1037138 4.6142209 4.1037138l21.3777304-.0039486-33.7823721 33.7826793-.3864505.4376378c-1.4169853 1.8223787-1.2881685 4.457436.3864505 6.132055 1.8141706 1.8141705 4.7555222 1.8141705 6.5696928 0l33.7766793-33.7783721.0020514 20.8485163.0312535.5417605c.2683463 2.3103741 2.2318551 4.1037139 4.6142208 4.1037139 2.5656246 0 4.6454743-2.0798497 4.6454743-4.6454744z" fill="none" stroke="#000" stroke-width="2" transform="translate(1 1)"/></svg>