<svg height="85" viewBox="0 0 85 85" width="85" xmlns="http://www.w3.org/2000/svg"><path d="m19.229139 0h44.541722c6.6863905 0 9.1110373.69619208 11.5554818 2.00349528 2.4444444 1.30730319 4.3628587 3.2257175 5.6701619 5.67016194 1.3073032 2.44444448 2.0034953 4.86909128 2.0034953 11.55548178v44.541722c0 6.6863905-.6961921 9.1110373-2.0034953 11.5554818-1.3073032 2.4444444-3.2257175 4.3628587-5.6701619 5.6701619-2.4444445 1.3073032-4.8690913 2.0034953-11.5554818 2.0034953h-44.541722c-6.6863905 0-9.1110373-.6961921-11.55548178-2.0034953-2.44444444-1.3073032-4.36285875-3.2257175-5.67016194-5.6701619-1.3073032-2.4444445-2.00349528-4.8690913-2.00349528-11.5554818v-44.541722c0-6.6863905.69619208-9.1110373 2.00349528-11.55548178 1.30730319-2.44444444 3.2257175-4.36285875 5.67016194-5.67016194 2.44444448-1.3073032 4.86909128-2.00349528 11.55548178-2.00349528zm5.7174245 49c-.1906453 0-.4851663 0-.883563 0-2.8004689 0-5.2284824-1.9372918-5.8502494-4.6678653l-3.1623962-13.8880898c-.2452392-1.0770012.4290371-2.1488888 1.5060382-2.394128.1456857-.0331735.2946301-.0499169.4440449-.0499169h13.9405532 8.391643 5.1169271 6.7317708 15.8058942c1.1045695 0 2 .8954305 2 2 0 .1494149-.0167435.2983592-.0499169.4440449l-3.1623962 13.8880898c-.621767 2.7305735-3.0497805 4.6678653-5.8502494 4.6678653-.3895471 0-.6776508 0-.8643113 0m-5.2192146 0c-2.0809406 0-5.2023516 0-9.3642328 0h-5.0921875c-4.1248148 0-7.2184259 0-9.2808333 0m24.8961157-7h3c.5522847 0 1 .4477153 1 1v10.2821659c-.8333333 2.4785561-1.6666667 3.7178341-2.5 3.7178341s-1.6666667-1.239278-2.5-3.7178341v-10.2821659c0-.5522847.4477153-1 1-1zm-29 0h3c.5522847 0 1 .4477153 1 1v10.2821659c-.8333333 2.4785561-1.6666667 3.7178341-2.5 3.7178341s-1.6666667-1.239278-2.5-3.7178341v-10.2821659c0-.5522847.4477153-1 1-1zm43.0514762-12c1.1244035 0 .9367757.1777828.9367757 1.2823523v25c0 3.3137085-2.7345274 6-6.107738 6h-43.7721226c-3.3732106 0-6.107738-2.6862915-6.107738-6v-25c0-1.1045695-.0634744-1.2823523 1.0609291-1.2823523m19.571122-8.5139147c2.4195155-.6481137 13.5065128-.6481137 15.6956658 0 1.4594353.4320758 1.4594353 2.6033807 0 6.5139147h-15.6956658c-1.6130103-3.910534-1.6130103-6.0818389 0-6.5139147z" fill="none" stroke="#000" stroke-width="2" transform="translate(1 1)"/></svg>