<svg height="59" viewBox="0 0 59 59" width="59" xmlns="http://www.w3.org/2000/svg"><path d="m106.762681 512.723736c1.693209 1.693209 1.814153 4.363298.362831 6.196061l-.362831.407256-19.4889779 19.491797 19.8622619 19.855658c1.693209 1.693209 1.814152 4.363299.36283 6.196062l-.36283.407256c-1.693209 1.693209-4.363299 1.814152-6.196062.36283l-.407256-.36283-20.1522264-20.15315-19.4416387 19.442424c-1.8234558 1.823456-4.7798619 1.823456-6.6033177 0-1.693209-1.693209-1.8141525-4.363298-.3628305-6.196062l.3628305-.407256 19.4889782-19.491796-19.8622615-19.855659c-1.6932089-1.693209-1.8141524-4.363298-.3628304-6.196061l.3628304-.407256c1.693209-1.693209 4.3632986-1.814153 6.1960619-.362831l.4072559.362831 20.1522118 20.151106 19.4416535-19.44038c1.823455-1.823456 4.779861-1.823456 6.603317 0z" fill="none" stroke="#000" stroke-width="2" transform="translate(-51 -509)"/></svg>