<svg height="85" viewBox="0 0 85 85" width="85" xmlns="http://www.w3.org/2000/svg"><path d="m84 16.0041181v52.9958819c0 8.2842712-6.7157288 15-15 15h-53c-8.28427125 0-15-6.7157288-15-15v-52.9958819c0-8.28427123 6.71572875-14.99999999 15-14.99999999h53c8.2842712 0 15 6.71572876 15 14.99999999zm-16.4457831 1.4958819h-29.6083399l-.4307975.0248522c-1.7738144.2060257-3.1643584 1.668652-3.2581488 3.4743956l-.0050453.1947438.0248522.4307975c.2060257 1.7738144 1.668652 3.1643584 3.4743955 3.2581489l.1947439.0050453 16.998123-.0029833-30.0537831 30.0562169-.0022336-16.5776998-.0248522-.4307974c-.2133839-1.837165-1.7747282-3.2631942-3.6691395-3.2631942-1.9743244 0-3.5868892 1.5488769-3.6888712 3.4978076l-.0051204.196184v29.1906998h29.6083399l.4307974-.0248522c1.7738144-.2060258 3.1643585-1.6686521 3.2581489-3.4743956l.0050453-.1947439-.0248522-.4307974c-.2060258-1.7738144-1.668652-3.1643585-3.4743956-3.2581489l-.1947438-.0050453-16.998123.0029833 30.0537831-30.0562169.0022336 16.5776997.0248522.4307975c.2133838 1.8371649 1.7747281 3.2631942 3.6691394 3.2631942 1.9743245 0 3.5868893-1.548877 3.6888713-3.4978076l.0051204-.1961841z" fill="none" stroke="#000" stroke-width="2"/></svg>