<svg height="85" viewBox="0 0 85 85" width="85" xmlns="http://www.w3.org/2000/svg"><g fill="none" fill-rule="evenodd" stroke="#000" stroke-width="2" transform="translate(1 1)"><path d="m13.9567246 63.1440972c0-5.3040975 0-10.608195 0-15.9122925 0-8.9957634.5909079-24.0877075 10.289339-24.0877075 9.698431 0 9.7830477 15.0919441 9.698431 24.0877075-.0528307 5.616532-.0561839 10.9175364-.0100596 15.9030132.0051375.5522763-.438429 1.004127-.9907056 1.0092365-.0030837.0000286-.0061676.0000428-.0092516.0000428h-17.9777532c-.5522848 0-1-.4477152-1-1z"/><path d="m23.9567246 23.1440972h15.1706954m5.9241856 0h12.7456043c11.1022391 0 11.1991037 15.0919441 11.1022391 24.0877075-.0584411 5.4273916-.0639935 8.9221305-.0166573 14.9313939.015604 1.9808986-.0473362 1.9808986-1.8130885 1.9808986-7.2495394 0-19.1238485 0-33.6229273 0"/><path d="m39.7601997 14v1.9803592c0 .3667541.2007645.7040819.5231321.8789751l3.4825985 1.8894044c.3223677.1748932.5231322.5122209.5231322.878975v20.1261926c0 .5522847.4477153 1 1 1h3.3059896c.5522847 0 1-.4477153 1-1v-25.7539063c0-.5522847-.4477153-1-1-1h-7.8348524c-.5522848 0-1 .4477153-1 1z" transform="matrix(-1 0 0 1 89.355252 0)"/><path d="m19.229139 0h44.541722c6.6863905 0 9.1110373.69619208 11.5554818 2.00349528 2.4444444 1.30730319 4.3628587 3.2257175 5.6701619 5.67016194 1.3073032 2.44444448 2.0034953 4.86909128 2.0034953 11.55548178v44.541722c0 6.6863905-.6961921 9.1110373-2.0034953 11.5554818-1.3073032 2.4444444-3.2257175 4.3628587-5.6701619 5.6701619-2.4444445 1.3073032-4.8690913 2.0034953-11.5554818 2.0034953h-44.541722c-6.6863905 0-9.1110373-.6961921-11.55548178-2.0034953-2.44444444-1.3073032-4.36285875-3.2257175-5.67016194-5.6701619-1.3073032-2.4444445-2.00349528-4.8690913-2.00349528-11.5554818v-44.541722c0-6.6863905.69619208-9.1110373 2.00349528-11.55548178 1.30730319-2.44444444 3.2257175-4.36285875 5.67016194-5.67016194 2.44444448-1.3073032 4.86909128-2.00349528 11.55548178-2.00349528z"/><g stroke-linecap="round"><path d="m19.115089 58.172327h9.21107"/><path d="m19.115089 54.644097h9.21107"/></g></g></svg>
