<svg class="arrow" height="85" viewBox="0 0 85 85" width="85" xmlns="http://www.w3.org/2000/svg"><path d="m19.229139 0h44.541722c6.6863905 0 9.1110373.69619208 11.5554818 2.00349528 2.4444444 1.30730319 4.3628587 3.2257175 5.6701619 5.67016194 1.3073032 2.44444448 2.0034953 4.86909128 2.0034953 11.55548178v44.541722c0 6.6863905-.6961921 9.1110373-2.0034953 11.5554818-1.3073032 2.4444444-3.2257175 4.3628587-5.6701619 5.6701619-2.4444445 1.3073032-4.8690913 2.0034953-11.5554818 2.0034953h-44.541722c-6.6863905 0-9.1110373-.6961921-11.55548178-2.0034953-2.44444444-1.3073032-4.36285875-3.2257175-5.67016194-5.6701619-1.3073032-2.4444445-2.00349528-4.8690913-2.00349528-11.5554818v-44.541722c0-6.6863905.69619208-9.1110373 2.00349528-11.55548178 1.30730319-2.44444444 3.2257175-4.36285875 5.67016194-5.67016194 2.44444448-1.3073032 4.86909128-2.00349528 11.55548178-2.00349528zm52.3908938 23.0357458-3.3159177-3.3159177c-3.0527601-3.0527601-7.202811-4.7529002-11.5199353-4.7193405l-30.8621388.23991c-4.2095059.0327231-8.2373192 1.7194686-11.2139793 4.6961287l-3.1966719 3.196672c-.928162.928162-1.4541116 2.1840874-1.4643151 3.496667l-.0475242 6.0358669c-.0202969 2.6886734 2.0848982 4.898168 4.7447387 5.0324104l.2945809.0063053 6.4461368-.0501097c1.6040515-.0124692 3.1047267-.7937871 4.0348285-2.1007099l5.7880272-7.7278472 20.6742279-.0188415 6.0851735 8.1507418c.9520058 1.2751574 2.3414508 1.7090268 3.932736 1.6966568l6.0370056-.0469293c2.7542663-.0214106 5.0852184-1.9542975 5.0740368-4.7086234l-.0265866-6.3482515c-.0054723-1.3188838-.5318234-2.5821886-1.464423-3.5147882zm-52.6138524 20.0018201-1.7072991 4.0681098 4.5774113 21.4976767c.4915138 2.3083798 2.5302426 3.9587136 4.8903704 3.9587136h31.105745c2.396225 0 4.4555612-1.7000199 4.9094731-4.0528604l4.1291865-21.4035299-1.8082666-4.0681098h-7.5681906l-6.030605-9.4674226h-19.1442957l-6.9670872 9.4674226zm13.9938196 16.9624341h2c.5522847 0 1 .4477153 1 1v2c0 .5522847-.4477153 1-1 1h-2c-.5522847 0-1-.4477153-1-1v-2c0-.5522847.4477153-1 1-1zm0-7h2c.5522847 0 1 .4477153 1 1v2c0 .5522847-.4477153 1-1 1h-2c-.5522847 0-1-.4477153-1-1v-2c0-.5522847.4477153-1 1-1zm8 7h2c.5522847 0 1 .4477153 1 1v2c0 .5522847-.4477153 1-1 1h-2c-.5522847 0-1-.4477153-1-1v-2c0-.5522847.4477153-1 1-1zm0-7h2c.5522847 0 1 .4477153 1 1v2c0 .5522847-.4477153 1-1 1h-2c-.5522847 0-1-.4477153-1-1v-2c0-.5522847.4477153-1 1-1zm8 7h2c.5522847 0 1 .4477153 1 1v2c0 .5522847-.4477153 1-1 1h-2c-.5522847 0-1-.4477153-1-1v-2c0-.5522847.4477153-1 1-1zm0-7h2c.5522847 0 1 .4477153 1 1v2c0 .5522847-.4477153 1-1 1h-2c-.5522847 0-1-.4477153-1-1v-2c0-.5522847.4477153-1 1-1zm-16-7h2c.5522847 0 1 .4477153 1 1v2c0 .5522847-.4477153 1-1 1h-2c-.5522847 0-1-.4477153-1-1v-2c0-.5522847.4477153-1 1-1zm8 0h2c.5522847 0 1 .4477153 1 1v2c0 .5522847-.4477153 1-1 1h-2c-.5522847 0-1-.4477153-1-1v-2c0-.5522847.4477153-1 1-1zm8 0h2c.5522847 0 1 .4477153 1 1v2c0 .5522847-.4477153 1-1 1h-2c-.5522847 0-1-.4477153-1-1v-2c0-.5522847.4477153-1 1-1z" fill="none" stroke="#000" stroke-width="2" transform="translate(1 1)"/></svg>
