<svg height="85" viewBox="0 0 85 85" width="85" xmlns="http://www.w3.org/2000/svg"><g fill="none" fill-rule="evenodd" stroke="#000" stroke-width="2" transform="translate(1 1)"><path d="m19.229139 0h44.541722c6.6863905 0 9.1110373.69619208 11.5554818 2.00349528 2.4444444 1.30730319 4.3628587 3.2257175 5.6701619 5.67016194 1.3073032 2.44444448 2.0034953 4.86909128 2.0034953 11.55548178v44.541722c0 6.6863905-.6961921 9.1110373-2.0034953 11.5554818-1.3073032 2.4444444-3.2257175 4.3628587-5.6701619 5.6701619-2.4444445 1.3073032-4.8690913 2.0034953-11.5554818 2.0034953h-44.541722c-6.6863905 0-9.1110373-.6961921-11.55548178-2.0034953-2.44444444-1.3073032-4.36285875-3.2257175-5.67016194-5.6701619-1.3073032-2.4444445-2.00349528-4.8690913-2.00349528-11.5554818v-44.541722c0-6.6863905.69619208-9.1110373 2.00349528-11.55548178 1.30730319-2.44444444 3.2257175-4.36285875 5.67016194-5.67016194 2.44444448-1.3073032 4.86909128-2.00349528 11.55548178-2.00349528z"/><circle cx="42.5" cy="40.5" r="27.5"/><ellipse cx="42.5" cy="40.5" rx="14.5" ry="27.5"/><path d="m42.5 13v55"/><path d="m66.935547 53.799805h-48.592285"/><path d="m70 40.799805h-55"/><path d="m67 28.799805h-50"/></g></svg>