<?xml version="1.0" encoding="UTF-8"?>
<svg width="700px" height="700px" viewBox="0 0 700 700" version="1.1" xmlns="http://www.w3.org/2000/svg" xmlns:xlink="http://www.w3.org/1999/xlink">
    <!-- Generator: Sketch 64 (93537) - https://sketch.com -->
    <title>tiled-cover</title>
    <desc>Created with Sketch.</desc>
    <g id="tiled-cover" stroke="none" stroke-width="1" fill="none" fill-rule="evenodd">
        <rect fill="#FFFFFF" x="0" y="0" width="700" height="700"></rect>
        <path d="M170.31,150.62722 C202.08925,106.594149 229.801142,90.9636544 326.480258,84.3123006 C423.159374,77.6609469 421.220848,178.46306 443.131487,271.229022 C470.629569,387.651281 570.500625,383.621268 570.500625,524.333455 C570.500625,599.03491 519.159682,637.02497 467.225625,646.185853 C315.167307,673.008105 227.11125,618.662662 170.31,553.470318 C113.50875,488.277974 142.777412,397.132785 132.838844,325.627756 C122.900277,254.122728 138.53075,194.660291 170.31,150.62722 Z" id="blob" fill="#1A1A1A"></path>
        <rect id="square" fill="#FFFFFF" x="233" y="233" width="234.950625" height="234.950625"></rect>
        <path d="M358.512401,363.104403 L358.512401,380.346164 L341.330094,380.346164 L341.330094,363.104403 L358.512401,363.104403 Z M358.512401,341.552202 L358.512401,358.793963 L341.330094,358.793963 L341.330094,341.552202 L358.512401,341.552202 Z M339.762204,320 L356.960567,337.241761 L322,337.241761 L322,320 L339.762204,320 Z M377.842495,320 L377.842495,337.241761 L360.660189,337.241761 L360.660189,320 L377.842495,320 Z" id="tiled-logo" fill="#1A1A1A"></path>
    </g>
</svg>